<svg xmlns="http://www.w3.org/2000/svg" width="412" height="412" viewBox="0 0 412 412">
  <rect width="100%" height="100%" fill="#0b141a"/>
  <g fill="none" stroke="#2a3942" stroke-width="0.45" opacity="0.55">
    <circle cx="40" cy="32" r="6"/><circle cx="120" cy="48" r="4"/><circle cx="200" cy="28" r="5"/>
    <circle cx="280" cy="56" r="4"/><circle cx="360" cy="36" r="6"/><circle cx="88" cy="120" r="5"/>
    <circle cx="168" cy="96" r="4"/><circle cx="248" cy="112" r="5"/><circle cx="328" cy="88" r="4"/>
    <circle cx="48" cy="200" r="4"/><circle cx="128" cy="176" r="5"/><circle cx="208" cy="192" r="4"/>
    <circle cx="288" cy="168" r="6"/><circle cx="368" cy="184" r="4"/><circle cx="72" cy="264" r="5"/>
    <circle cx="152" cy="240" r="4"/><circle cx="232" cy="256" r="5"/><circle cx="312" cy="232" r="4"/>
    <circle cx="392" cy="248" r="5"/><circle cx="32" cy="328" r="5"/><circle cx="112" cy="304" r="4"/>
    <circle cx="192" cy="320" r="6"/><circle cx="272" cy="296" r="4"/><circle cx="352" cy="312" r="5"/>
    <path d="M60 80h20v12H60zM140 72l8 14-16 8zM220 64h16v16h-16zM300 76l12 12-12 12zM380 68c0 8-6 14-14 14s-14-6-14-14"/>
    <path d="M20 160h24v8H20zM100 152c6 0 10 4 10 10M180 148l10 10-10 10M260 156h14v14h-14M340 150a8 8 0 110 16 8 8 0 010-16"/>
    <path d="M44 240l12-6 6 12-12 6zM124 228h18v18h-18zM204 236l8 8-8 8-8-8zM284 224c4 8 12 12 20 8M364 232v16h-16"/>
    <path d="M68 320h14v14H68zM148 312l10 6-4 12-12-4zM228 304a10 10 0 100 20 10 10 0 000-20M308 316h12v12h-12M388 308l-8 14 16 4"/>
  </g>
</svg>
